<svg version="1.1" id="Layer_1" xmlns="http://www.w3.org/2000/svg" x="0" y="0" viewBox="0 0 960 180" xml:space="preserve">
  <style>
    .st0{fill:#fff}
  </style>
  <path class="st0" d="M11.59 119.01l2.75-6.35h27.95l-2.75 6.35c-5.08 11.86-2.12 18.21 8.68 18.21 9.32 0 15.67-4.24 19.48-12.92l.85-2.12c4.24-10.16 2.75-16.31-5.08-21.18l-9.11-5.51c-15.67-9.53-20.33-25.2-12.49-42.78l1.69-4.02C52.67 27.53 67.71 18 92.27 18c27.74 0 42.14 16.94 32.61 38.75l-2.75 6.14H94.18l2.75-6.14c4.24-9.95 1.06-15.46-8.68-15.46-8.47 0-14.4 4.02-18 12.49l-.85 2.12c-3.81 8.89-2.12 14.61 5.72 19.48l9.32 5.72c16.31 10.16 20.12 24.35 11.86 44.26l-1.69 4.24C85.49 151.62 69.82 162 45.26 162c-30.5 0-44.47-18-33.67-42.99zM113.87 114.35L140.55 54c10.38-23.51 28.16-36 50.61-36 30.92 0 47.22 22.02 35.79 47.65L200.06 126c-10.59 23.72-28.16 36-51.25 36-30.49 0-46.38-21.81-34.94-47.65zm59.08 7.63l26.89-60.56c4.87-11.01.42-19.06-11.01-19.06-9.74 0-16.31 5.08-21.18 15.88l-26.68 60.35c-5.08 11.44-.42 19.06 11.01 19.06 9.54 0 16.31-5.09 20.97-15.67zM222.29 114.35L248.98 54c10.38-23.51 28.16-36 50.61-36 30.92 0 47.22 22.02 35.79 47.65L308.48 126c-10.59 23.72-28.16 36-51.25 36-30.49 0-46.37-21.81-34.94-47.65zm59.08 7.63l26.89-60.56c4.87-11.01.42-19.06-11.01-19.06-9.74 0-16.31 5.08-21.18 15.88l-26.68 60.35c-5.08 11.44-.42 19.06 11.01 19.06 9.54 0 16.32-5.09 20.97-15.67zM460.74 20.54L398.9 159.46h-29.01l5.08-81.53-36.21 81.53h-27.74l61.83-138.92h29.01l-5.72 83.65 37.06-83.65h27.54zM484.88 114.78l26.05-58.66C523 29.01 538.67 18 564.5 18c30.28 0 45.32 22.02 33.25 48.71l-5.29 12.28h-29.22l6.99-15.46c5.72-12.49 1.27-21.18-10.16-21.18-10.16 0-16.09 4.87-21.6 17.15L512 119.64c-4.66 10.38-.42 18 10.16 18 11.86 0 18.42-6.99 23.93-19.48l6.14-13.98h29.01l-6.56 14.61c-13.76 30.71-29.86 43.2-56.12 43.2-29.23.01-44.9-21.8-33.68-47.21zM591.4 114.35L618.08 54c10.38-23.51 28.16-36 50.61-36 30.92 0 47.22 22.02 35.79 47.65L677.59 126c-10.59 23.72-28.16 36-51.25 36-30.5 0-46.38-21.81-34.94-47.65zm59.08 7.63l26.89-60.56c4.87-11.01.42-19.06-11.01-19.06-9.74 0-16.31 5.08-21.18 15.88l-26.68 60.35c-5.08 11.44-.42 19.06 11.01 19.06 9.53 0 16.31-5.09 20.97-15.67zM795.54 159.46h-27.53l36-80.68-56.12 80.68h-20.33l15.88-80.05-35.58 80.05h-27.74l61.84-138.92h34.73l-16.73 86.19 59.72-86.19h37.69l-61.83 138.92zM875.16 20.54h76.87l-11.01 24.35h-47.65l-14.61 32.82h43.84l-10.8 24.56h-44.05l-14.4 32.82h47.86l-11.01 24.35h-76.87l61.83-138.9z"/>
</svg>
